<mxfile host="app.diagrams.net" modified="2024-01-23T19:48:45.113Z" agent="Mozilla/5.0 (Windows NT 10.0; Win64; x64) AppleWebKit/537.36 (KHTML, like Gecko) Chrome/120.0.0.0 Safari/537.36 Edg/120.0.0.0" etag="0fIaqUt23ttLcNISntei" version="22.1.22" type="device">
  <diagram name="Page-1" id="QW2sTxVKurb5xVBjDxKU">
    <mxGraphModel dx="490" dy="348" grid="1" gridSize="10" guides="1" tooltips="1" connect="1" arrows="1" fold="1" page="1" pageScale="1" pageWidth="827" pageHeight="1169" math="0" shadow="0">
      <root>
        <mxCell id="0" />
        <mxCell id="1" parent="0" />
        <mxCell id="3eYbyAgVcaboL_V7UxuV-33" style="rounded=0;orthogonalLoop=1;jettySize=auto;html=1;exitX=0.11;exitY=0.181;exitDx=0;exitDy=0;entryX=1;entryY=0.75;entryDx=0;entryDy=0;exitPerimeter=0;" edge="1" parent="1" source="3eYbyAgVcaboL_V7UxuV-25" target="3eYbyAgVcaboL_V7UxuV-2">
          <mxGeometry relative="1" as="geometry" />
        </mxCell>
        <mxCell id="3eYbyAgVcaboL_V7UxuV-25" value="reciever" style="ellipse;whiteSpace=wrap;html=1;" vertex="1" parent="1">
          <mxGeometry x="510" y="260" width="210" height="260" as="geometry" />
        </mxCell>
        <mxCell id="3eYbyAgVcaboL_V7UxuV-21" style="rounded=0;orthogonalLoop=1;jettySize=auto;html=1;exitX=1;exitY=0.5;exitDx=0;exitDy=0;entryX=0;entryY=0.5;entryDx=0;entryDy=0;" edge="1" parent="1" source="3eYbyAgVcaboL_V7UxuV-1" target="3eYbyAgVcaboL_V7UxuV-18">
          <mxGeometry relative="1" as="geometry" />
        </mxCell>
        <mxCell id="3eYbyAgVcaboL_V7UxuV-22" style="rounded=0;orthogonalLoop=1;jettySize=auto;html=1;exitX=1;exitY=0.5;exitDx=0;exitDy=0;entryX=0;entryY=0.5;entryDx=0;entryDy=0;" edge="1" parent="1" source="3eYbyAgVcaboL_V7UxuV-1" target="3eYbyAgVcaboL_V7UxuV-19">
          <mxGeometry relative="1" as="geometry" />
        </mxCell>
        <mxCell id="3eYbyAgVcaboL_V7UxuV-1" value="MQTT server" style="rounded=0;whiteSpace=wrap;html=1;" vertex="1" parent="1">
          <mxGeometry x="330" y="360" width="120" height="60" as="geometry" />
        </mxCell>
        <mxCell id="3eYbyAgVcaboL_V7UxuV-31" style="rounded=0;orthogonalLoop=1;jettySize=auto;html=1;exitX=1;exitY=0.5;exitDx=0;exitDy=0;entryX=0;entryY=0;entryDx=0;entryDy=0;" edge="1" parent="1" source="3eYbyAgVcaboL_V7UxuV-2" target="3eYbyAgVcaboL_V7UxuV-25">
          <mxGeometry relative="1" as="geometry" />
        </mxCell>
        <mxCell id="3eYbyAgVcaboL_V7UxuV-2" value="Miacrocontroller" style="rounded=0;whiteSpace=wrap;html=1;" vertex="1" parent="1">
          <mxGeometry x="230" y="190" width="120" height="60" as="geometry" />
        </mxCell>
        <mxCell id="3eYbyAgVcaboL_V7UxuV-3" value="" style="shape=mxgraph.arrows2.wedgeArrowDashed2;html=1;bendable=0;startWidth=50;stepSize=15;rounded=0;exitX=0.25;exitY=0;exitDx=0;exitDy=0;" edge="1" parent="1" source="3eYbyAgVcaboL_V7UxuV-1">
          <mxGeometry width="100" height="100" relative="1" as="geometry">
            <mxPoint x="190" y="360" as="sourcePoint" />
            <mxPoint x="290" y="260" as="targetPoint" />
          </mxGeometry>
        </mxCell>
        <mxCell id="3eYbyAgVcaboL_V7UxuV-4" value="Wi-Fi" style="text;html=1;align=center;verticalAlign=middle;resizable=0;points=[];autosize=1;strokeColor=none;fillColor=none;" vertex="1" parent="1">
          <mxGeometry x="250" y="310" width="50" height="30" as="geometry" />
        </mxCell>
        <mxCell id="3eYbyAgVcaboL_V7UxuV-15" style="rounded=0;orthogonalLoop=1;jettySize=auto;html=1;exitX=1;exitY=1;exitDx=0;exitDy=0;entryX=0;entryY=0.25;entryDx=0;entryDy=0;" edge="1" parent="1" source="3eYbyAgVcaboL_V7UxuV-6" target="3eYbyAgVcaboL_V7UxuV-2">
          <mxGeometry relative="1" as="geometry" />
        </mxCell>
        <mxCell id="3eYbyAgVcaboL_V7UxuV-6" value="Light indensity sensor" style="rounded=0;whiteSpace=wrap;html=1;" vertex="1" parent="1">
          <mxGeometry x="60" y="80" width="120" height="60" as="geometry" />
        </mxCell>
        <mxCell id="3eYbyAgVcaboL_V7UxuV-16" style="rounded=0;orthogonalLoop=1;jettySize=auto;html=1;exitX=1;exitY=0.5;exitDx=0;exitDy=0;entryX=0;entryY=0.5;entryDx=0;entryDy=0;" edge="1" parent="1" source="3eYbyAgVcaboL_V7UxuV-7" target="3eYbyAgVcaboL_V7UxuV-2">
          <mxGeometry relative="1" as="geometry" />
        </mxCell>
        <mxCell id="3eYbyAgVcaboL_V7UxuV-7" value="Pressure sensor" style="rounded=0;whiteSpace=wrap;html=1;" vertex="1" parent="1">
          <mxGeometry x="60" y="150" width="120" height="60" as="geometry" />
        </mxCell>
        <mxCell id="3eYbyAgVcaboL_V7UxuV-17" style="rounded=0;orthogonalLoop=1;jettySize=auto;html=1;exitX=1;exitY=0;exitDx=0;exitDy=0;entryX=0;entryY=0.5;entryDx=0;entryDy=0;" edge="1" parent="1" source="3eYbyAgVcaboL_V7UxuV-8" target="3eYbyAgVcaboL_V7UxuV-2">
          <mxGeometry relative="1" as="geometry" />
        </mxCell>
        <mxCell id="3eYbyAgVcaboL_V7UxuV-8" value="Temperature sensor" style="rounded=0;whiteSpace=wrap;html=1;" vertex="1" parent="1">
          <mxGeometry x="60" y="220" width="120" height="60" as="geometry" />
        </mxCell>
        <mxCell id="3eYbyAgVcaboL_V7UxuV-18" value="&lt;div style=&quot;text-align: start;&quot;&gt;&lt;span style=&quot;background-color: initial;&quot;&gt;NodeRed&lt;/span&gt;&lt;/div&gt;" style="rounded=0;whiteSpace=wrap;html=1;" vertex="1" parent="1">
          <mxGeometry x="550" y="310" width="120" height="60" as="geometry" />
        </mxCell>
        <mxCell id="3eYbyAgVcaboL_V7UxuV-19" value="Phone" style="rounded=0;whiteSpace=wrap;html=1;" vertex="1" parent="1">
          <mxGeometry x="550" y="420" width="120" height="60" as="geometry" />
        </mxCell>
        <mxCell id="3eYbyAgVcaboL_V7UxuV-24" value="Cloud" style="ellipse;shape=cloud;whiteSpace=wrap;html=1;" vertex="1" parent="1">
          <mxGeometry x="470" y="365" width="80" height="50" as="geometry" />
        </mxCell>
        <mxCell id="3eYbyAgVcaboL_V7UxuV-34" value="Publish" style="text;html=1;align=center;verticalAlign=middle;resizable=0;points=[];autosize=1;strokeColor=none;fillColor=none;" vertex="1" parent="1">
          <mxGeometry x="440" y="230" width="60" height="30" as="geometry" />
        </mxCell>
        <mxCell id="3eYbyAgVcaboL_V7UxuV-35" value="Subscribe" style="text;html=1;align=center;verticalAlign=middle;resizable=0;points=[];autosize=1;strokeColor=none;fillColor=none;" vertex="1" parent="1">
          <mxGeometry x="380" y="270" width="80" height="30" as="geometry" />
        </mxCell>
        <mxCell id="3eYbyAgVcaboL_V7UxuV-37" style="rounded=0;orthogonalLoop=1;jettySize=auto;html=1;exitX=1;exitY=0.5;exitDx=0;exitDy=0;entryX=0;entryY=0.75;entryDx=0;entryDy=0;" edge="1" parent="1" source="3eYbyAgVcaboL_V7UxuV-36" target="3eYbyAgVcaboL_V7UxuV-2">
          <mxGeometry relative="1" as="geometry" />
        </mxCell>
        <mxCell id="3eYbyAgVcaboL_V7UxuV-36" value="Humidity sensor" style="rounded=0;whiteSpace=wrap;html=1;" vertex="1" parent="1">
          <mxGeometry x="60" y="290" width="120" height="60" as="geometry" />
        </mxCell>
      </root>
    </mxGraphModel>
  </diagram>
</mxfile>
